# xmcd CD database file
#
# Track frame offsets:
#	150
#	11902
#	28356
#	43995
#	58046
#	72079
#	88627
#	108777
#	122024
#	137431
#	150662
#	168631
#
# Disc length: 2459 seconds
#
# Revision: 0
# Processed by: cddbd v1.4PL0 Copyright (c) Steve Scherf et al.
# Submitted via: CDex 1.50
#
DISCID=a209990c
DTITLE=Los Cowtones - The Last Album You'll Ever Need
DYEAR=2003
DGENRE=Country
TTITLE0=Any Time
TTITLE1=Only One Man
TTITLE2=Compadres in the Old Sierra Madre
TTITLE3=Ain't Misbehavin'
TTITLE4=I'm Gonna Sit Right Down and Write Myself a Letter
TTITLE5=Exactly Like You
TTITLE6=South of the Border (Down Mexico Way)
TTITLE7=Once Is Enough
TTITLE8=I'm Still in Love with You
TTITLE9=Livin' Ain't Easy
TTITLE10=Gone Too Long
TTITLE11=Bye Bye Blackbird
EXTD=YEAR: 2003
EXTT0=
EXTT1=
EXTT2=
EXTT3=
EXTT4=
EXTT5=
EXTT6=
EXTT7=
EXTT8=
EXTT9=
EXTT10=
EXTT11=
PLAYORDER=
